<svg width="1218" height="552" viewBox="0 0 1218 552" fill="none" xmlns="http://www.w3.org/2000/svg">
<g filter="url(#filter0_d_0_1324)">
<path fill-rule="evenodd" clip-rule="evenodd" d="M48 62C48 54.268 54.268 48 62 48H1172C1179.73 48 1186 54.268 1186 62V478C1186 485.732 1179.73 492 1172 492H62C54.268 492 48 485.732 48 478V62Z" fill="white"/>
</g>
<path d="M759.021 430.264V431.248H757.785V433H756.573V431.248H752.769V430.324L756.777 424.54H757.785V430.264H759.021ZM753.981 430.264H756.573V426.52L753.981 430.264ZM763 433.096C762.016 433.096 761.264 432.728 760.744 431.992C760.232 431.256 759.976 430.184 759.976 428.776C759.976 427.368 760.232 426.296 760.744 425.56C761.264 424.816 762.016 424.444 763 424.444C763.984 424.444 764.732 424.812 765.244 425.548C765.764 426.284 766.024 427.356 766.024 428.764C766.024 430.18 765.764 431.256 765.244 431.992C764.732 432.728 763.984 433.096 763 433.096ZM763 432.1C763.616 432.1 764.068 431.832 764.356 431.296C764.644 430.76 764.788 429.916 764.788 428.764C764.788 427.62 764.644 426.784 764.356 426.256C764.068 425.72 763.616 425.452 763 425.452C762.384 425.452 761.932 425.72 761.644 426.256C761.356 426.784 761.212 427.62 761.212 428.764C761.212 429.908 761.356 430.752 761.644 431.296C761.932 431.832 762.384 432.1 763 432.1ZM772.956 433H771.42L768.648 430.24V433H767.436V424.54H768.648V429.784L771.216 427.156H772.716L769.944 429.964L772.956 433Z" fill="#416849" fill-opacity="0.4"/>
<path d="M845.021 430.264V431.248H843.785V433H842.573V431.248H838.769V430.324L842.777 424.54H843.785V430.264H845.021ZM839.981 430.264H842.573V426.52L839.981 430.264ZM849.408 427.648C849.936 427.648 850.4 427.76 850.8 427.984C851.2 428.208 851.508 428.524 851.724 428.932C851.948 429.34 852.06 429.808 852.06 430.336C852.06 430.88 851.936 431.36 851.688 431.776C851.448 432.192 851.1 432.516 850.644 432.748C850.196 432.972 849.672 433.084 849.072 433.084C848.552 433.084 848.036 432.992 847.524 432.808C847.02 432.624 846.6 432.376 846.264 432.064L846.696 431.152C847.456 431.768 848.252 432.076 849.084 432.076C849.644 432.076 850.08 431.928 850.392 431.632C850.704 431.328 850.86 430.904 850.86 430.36C850.86 429.84 850.704 429.424 850.392 429.112C850.08 428.8 849.664 428.644 849.144 428.644C848.4 428.644 847.788 428.932 847.308 429.508H846.516V424.54H851.7V425.536H847.74V428.2C848.18 427.832 848.736 427.648 849.408 427.648ZM858.956 433H857.42L854.648 430.24V433H853.436V424.54H854.648V429.784L857.216 427.156H858.716L855.944 429.964L858.956 433Z" fill="#416849" fill-opacity="0.4"/>
<path d="M928.213 427.648C928.741 427.648 929.205 427.76 929.605 427.984C930.005 428.208 930.313 428.524 930.529 428.932C930.753 429.34 930.865 429.808 930.865 430.336C930.865 430.88 930.741 431.36 930.493 431.776C930.253 432.192 929.905 432.516 929.449 432.748C929.001 432.972 928.477 433.084 927.877 433.084C927.357 433.084 926.841 432.992 926.329 432.808C925.825 432.624 925.405 432.376 925.069 432.064L925.501 431.152C926.261 431.768 927.057 432.076 927.889 432.076C928.449 432.076 928.885 431.928 929.197 431.632C929.509 431.328 929.665 430.904 929.665 430.36C929.665 429.84 929.509 429.424 929.197 429.112C928.885 428.8 928.469 428.644 927.949 428.644C927.205 428.644 926.593 428.932 926.113 429.508H925.321V424.54H930.505V425.536H926.545V428.2C926.985 427.832 927.541 427.648 928.213 427.648ZM935 433.096C934.016 433.096 933.264 432.728 932.744 431.992C932.232 431.256 931.976 430.184 931.976 428.776C931.976 427.368 932.232 426.296 932.744 425.56C933.264 424.816 934.016 424.444 935 424.444C935.984 424.444 936.732 424.812 937.244 425.548C937.764 426.284 938.024 427.356 938.024 428.764C938.024 430.18 937.764 431.256 937.244 431.992C936.732 432.728 935.984 433.096 935 433.096ZM935 432.1C935.616 432.1 936.068 431.832 936.356 431.296C936.644 430.76 936.788 429.916 936.788 428.764C936.788 427.62 936.644 426.784 936.356 426.256C936.068 425.72 935.616 425.452 935 425.452C934.384 425.452 933.932 425.72 933.644 426.256C933.356 426.784 933.212 427.62 933.212 428.764C933.212 429.908 933.356 430.752 933.644 431.296C933.932 431.832 934.384 432.1 935 432.1ZM944.956 433H943.42L940.648 430.24V433H939.436V424.54H940.648V429.784L943.216 427.156H944.716L941.944 429.964L944.956 433Z" fill="#416849" fill-opacity="0.4"/>
<path d="M1014.21 427.648C1014.74 427.648 1015.21 427.76 1015.61 427.984C1016.01 428.208 1016.31 428.524 1016.53 428.932C1016.75 429.34 1016.87 429.808 1016.87 430.336C1016.87 430.88 1016.74 431.36 1016.49 431.776C1016.25 432.192 1015.91 432.516 1015.45 432.748C1015 432.972 1014.48 433.084 1013.88 433.084C1013.36 433.084 1012.84 432.992 1012.33 432.808C1011.83 432.624 1011.41 432.376 1011.07 432.064L1011.5 431.152C1012.26 431.768 1013.06 432.076 1013.89 432.076C1014.45 432.076 1014.89 431.928 1015.2 431.632C1015.51 431.328 1015.67 430.904 1015.67 430.36C1015.67 429.84 1015.51 429.424 1015.2 429.112C1014.89 428.8 1014.47 428.644 1013.95 428.644C1013.21 428.644 1012.59 428.932 1012.11 429.508H1011.32V424.54H1016.51V425.536H1012.55V428.2C1012.99 427.832 1013.54 427.648 1014.21 427.648ZM1021.41 427.648C1021.94 427.648 1022.4 427.76 1022.8 427.984C1023.2 428.208 1023.51 428.524 1023.72 428.932C1023.95 429.34 1024.06 429.808 1024.06 430.336C1024.06 430.88 1023.94 431.36 1023.69 431.776C1023.45 432.192 1023.1 432.516 1022.64 432.748C1022.2 432.972 1021.67 433.084 1021.07 433.084C1020.55 433.084 1020.04 432.992 1019.52 432.808C1019.02 432.624 1018.6 432.376 1018.26 432.064L1018.7 431.152C1019.46 431.768 1020.25 432.076 1021.08 432.076C1021.64 432.076 1022.08 431.928 1022.39 431.632C1022.7 431.328 1022.86 430.904 1022.86 430.36C1022.86 429.84 1022.7 429.424 1022.39 429.112C1022.08 428.8 1021.66 428.644 1021.14 428.644C1020.4 428.644 1019.79 428.932 1019.31 429.508H1018.52V424.54H1023.7V425.536H1019.74V428.2C1020.18 427.832 1020.74 427.648 1021.41 427.648ZM1030.96 433H1029.42L1026.65 430.24V433H1025.44V424.54H1026.65V429.784L1029.22 427.156H1030.72L1027.94 429.964L1030.96 433Z" fill="#416849" fill-opacity="0.4"/>
<path d="M1100.24 427.636C1100.75 427.636 1101.21 427.752 1101.6 427.984C1102 428.208 1102.31 428.524 1102.52 428.932C1102.75 429.34 1102.86 429.808 1102.86 430.336C1102.86 430.864 1102.74 431.34 1102.5 431.764C1102.27 432.18 1101.94 432.508 1101.51 432.748C1101.09 432.98 1100.61 433.096 1100.09 433.096C1099.04 433.096 1098.23 432.74 1097.66 432.028C1097.1 431.308 1096.82 430.284 1096.82 428.956C1096.82 428.012 1096.95 427.204 1097.22 426.532C1097.48 425.852 1097.87 425.336 1098.37 424.984C1098.87 424.624 1099.47 424.444 1100.17 424.444C1100.67 424.444 1101.15 424.532 1101.62 424.708C1102.09 424.884 1102.51 425.136 1102.86 425.464L1102.41 426.376C1101.66 425.76 1100.93 425.452 1100.21 425.452C1099.52 425.452 1098.99 425.756 1098.61 426.364C1098.23 426.964 1098.05 427.82 1098.05 428.932V428.968C1098.22 428.552 1098.51 428.228 1098.9 427.996C1099.3 427.756 1099.75 427.636 1100.24 427.636ZM1100.03 432.088C1100.52 432.088 1100.92 431.932 1101.21 431.62C1101.51 431.3 1101.66 430.88 1101.66 430.36C1101.66 429.84 1101.51 429.424 1101.2 429.112C1100.91 428.8 1100.51 428.644 1100.01 428.644C1099.52 428.644 1099.11 428.804 1098.79 429.124C1098.47 429.436 1098.31 429.848 1098.31 430.36C1098.31 430.872 1098.47 431.288 1098.78 431.608C1099.1 431.928 1099.51 432.088 1100.03 432.088ZM1106.99 433.096C1106.01 433.096 1105.26 432.728 1104.74 431.992C1104.23 431.256 1103.97 430.184 1103.97 428.776C1103.97 427.368 1104.23 426.296 1104.74 425.56C1105.26 424.816 1106.01 424.444 1106.99 424.444C1107.98 424.444 1108.73 424.812 1109.24 425.548C1109.76 426.284 1110.02 427.356 1110.02 428.764C1110.02 430.18 1109.76 431.256 1109.24 431.992C1108.73 432.728 1107.98 433.096 1106.99 433.096ZM1106.99 432.1C1107.61 432.1 1108.06 431.832 1108.35 431.296C1108.64 430.76 1108.78 429.916 1108.78 428.764C1108.78 427.62 1108.64 426.784 1108.35 426.256C1108.06 425.72 1107.61 425.452 1106.99 425.452C1106.38 425.452 1105.93 425.72 1105.64 426.256C1105.35 426.784 1105.21 427.62 1105.21 428.764C1105.21 429.908 1105.35 430.752 1105.64 431.296C1105.93 431.832 1106.38 432.1 1106.99 432.1ZM1116.95 433H1115.41L1112.64 430.24V433H1111.43V424.54H1112.64V429.784L1115.21 427.156H1116.71L1113.94 429.964L1116.95 433Z" fill="#416849" fill-opacity="0.4"/>
<path d="M160.311 427.648C160.839 427.648 161.303 427.76 161.703 427.984C162.103 428.208 162.411 428.524 162.627 428.932C162.851 429.34 162.963 429.808 162.963 430.336C162.963 430.88 162.839 431.36 162.591 431.776C162.351 432.192 162.003 432.516 161.547 432.748C161.099 432.972 160.575 433.084 159.975 433.084C159.455 433.084 158.939 432.992 158.427 432.808C157.923 432.624 157.503 432.376 157.167 432.064L157.599 431.152C158.359 431.768 159.155 432.076 159.987 432.076C160.547 432.076 160.983 431.928 161.295 431.632C161.607 431.328 161.763 430.904 161.763 430.36C161.763 429.84 161.607 429.424 161.295 429.112C160.983 428.8 160.567 428.644 160.047 428.644C159.303 428.644 158.691 428.932 158.211 429.508H157.419V424.54H162.603V425.536H158.643V428.2C159.083 427.832 159.639 427.648 160.311 427.648ZM169.858 433H168.322L165.55 430.24V433H164.338V424.54H165.55V429.784L168.118 427.156H169.618L166.846 429.964L169.858 433Z" fill="#416849" fill-opacity="0.4"/>
<path d="M240.265 431.98H242.125V433H237.181V431.98H239.029V426.016L237.553 426.916L237.025 425.992L239.377 424.54H240.265V431.98ZM246.5 433.096C245.516 433.096 244.764 432.728 244.244 431.992C243.732 431.256 243.476 430.184 243.476 428.776C243.476 427.368 243.732 426.296 244.244 425.56C244.764 424.816 245.516 424.444 246.5 424.444C247.484 424.444 248.232 424.812 248.744 425.548C249.264 426.284 249.524 427.356 249.524 428.764C249.524 430.18 249.264 431.256 248.744 431.992C248.232 432.728 247.484 433.096 246.5 433.096ZM246.5 432.1C247.116 432.1 247.568 431.832 247.856 431.296C248.144 430.76 248.288 429.916 248.288 428.764C248.288 427.62 248.144 426.784 247.856 426.256C247.568 425.72 247.116 425.452 246.5 425.452C245.884 425.452 245.432 425.72 245.144 426.256C244.856 426.784 244.712 427.62 244.712 428.764C244.712 429.908 244.856 430.752 245.144 431.296C245.432 431.832 245.884 432.1 246.5 432.1ZM256.456 433H254.92L252.148 430.24V433H250.936V424.54H252.148V429.784L254.716 427.156H256.216L253.444 429.964L256.456 433Z" fill="#416849" fill-opacity="0.4"/>
<path d="M326.265 431.98H328.125V433H323.181V431.98H325.029V426.016L323.553 426.916L323.025 425.992L325.377 424.54H326.265V431.98ZM332.908 427.648C333.436 427.648 333.9 427.76 334.3 427.984C334.7 428.208 335.008 428.524 335.224 428.932C335.448 429.34 335.56 429.808 335.56 430.336C335.56 430.88 335.436 431.36 335.188 431.776C334.948 432.192 334.6 432.516 334.144 432.748C333.696 432.972 333.172 433.084 332.572 433.084C332.052 433.084 331.536 432.992 331.024 432.808C330.52 432.624 330.1 432.376 329.764 432.064L330.196 431.152C330.956 431.768 331.752 432.076 332.584 432.076C333.144 432.076 333.58 431.928 333.892 431.632C334.204 431.328 334.36 430.904 334.36 430.36C334.36 429.84 334.204 429.424 333.892 429.112C333.58 428.8 333.164 428.644 332.644 428.644C331.9 428.644 331.288 428.932 330.808 429.508H330.016V424.54H335.2V425.536H331.24V428.2C331.68 427.832 332.236 427.648 332.908 427.648ZM342.456 433H340.92L338.148 430.24V433H336.936V424.54H338.148V429.784L340.716 427.156H342.216L339.444 429.964L342.456 433Z" fill="#416849" fill-opacity="0.4"/>
<path d="M414.209 431.98V433H408.665V432.076L411.581 428.884C411.957 428.476 412.229 428.104 412.397 427.768C412.565 427.432 412.649 427.1 412.649 426.772C412.649 426.34 412.525 426.012 412.277 425.788C412.029 425.564 411.673 425.452 411.209 425.452C410.417 425.452 409.633 425.76 408.857 426.376L408.425 425.464C408.761 425.152 409.185 424.904 409.697 424.72C410.209 424.536 410.725 424.444 411.245 424.444C412.053 424.444 412.693 424.648 413.165 425.056C413.637 425.456 413.873 426 413.873 426.688C413.873 427.176 413.765 427.64 413.549 428.08C413.341 428.52 412.989 429.012 412.493 429.556L410.225 431.98H414.209ZM418.5 433.096C417.516 433.096 416.764 432.728 416.244 431.992C415.732 431.256 415.476 430.184 415.476 428.776C415.476 427.368 415.732 426.296 416.244 425.56C416.764 424.816 417.516 424.444 418.5 424.444C419.484 424.444 420.232 424.812 420.744 425.548C421.264 426.284 421.524 427.356 421.524 428.764C421.524 430.18 421.264 431.256 420.744 431.992C420.232 432.728 419.484 433.096 418.5 433.096ZM418.5 432.1C419.116 432.1 419.568 431.832 419.856 431.296C420.144 430.76 420.288 429.916 420.288 428.764C420.288 427.62 420.144 426.784 419.856 426.256C419.568 425.72 419.116 425.452 418.5 425.452C417.884 425.452 417.432 425.72 417.144 426.256C416.856 426.784 416.712 427.62 416.712 428.764C416.712 429.908 416.856 430.752 417.144 431.296C417.432 431.832 417.884 432.1 418.5 432.1ZM428.456 433H426.92L424.148 430.24V433H422.936V424.54H424.148V429.784L426.716 427.156H428.216L425.444 429.964L428.456 433Z" fill="#416849" fill-opacity="0.4"/>
<path d="M500.209 431.98V433H494.665V432.076L497.581 428.884C497.957 428.476 498.229 428.104 498.397 427.768C498.565 427.432 498.649 427.1 498.649 426.772C498.649 426.34 498.525 426.012 498.277 425.788C498.029 425.564 497.673 425.452 497.209 425.452C496.417 425.452 495.633 425.76 494.857 426.376L494.425 425.464C494.761 425.152 495.185 424.904 495.697 424.72C496.209 424.536 496.725 424.444 497.245 424.444C498.053 424.444 498.693 424.648 499.165 425.056C499.637 425.456 499.873 426 499.873 426.688C499.873 427.176 499.765 427.64 499.549 428.08C499.341 428.52 498.989 429.012 498.493 429.556L496.225 431.98H500.209ZM504.908 427.648C505.436 427.648 505.9 427.76 506.3 427.984C506.7 428.208 507.008 428.524 507.224 428.932C507.448 429.34 507.56 429.808 507.56 430.336C507.56 430.88 507.436 431.36 507.188 431.776C506.948 432.192 506.6 432.516 506.144 432.748C505.696 432.972 505.172 433.084 504.572 433.084C504.052 433.084 503.536 432.992 503.024 432.808C502.52 432.624 502.1 432.376 501.764 432.064L502.196 431.152C502.956 431.768 503.752 432.076 504.584 432.076C505.144 432.076 505.58 431.928 505.892 431.632C506.204 431.328 506.36 430.904 506.36 430.36C506.36 429.84 506.204 429.424 505.892 429.112C505.58 428.8 505.164 428.644 504.644 428.644C503.9 428.644 503.288 428.932 502.808 429.508H502.016V424.54H507.2V425.536H503.24V428.2C503.68 427.832 504.236 427.648 504.908 427.648ZM514.456 433H512.92L510.148 430.24V433H508.936V424.54H510.148V429.784L512.716 427.156H514.216L511.444 429.964L514.456 433Z" fill="#416849" fill-opacity="0.4"/>
<path d="M671.053 428.656C671.549 428.8 671.925 429.048 672.181 429.4C672.445 429.744 672.577 430.18 672.577 430.708C672.577 431.444 672.317 432.024 671.797 432.448C671.277 432.872 670.573 433.084 669.685 433.084C669.125 433.084 668.589 432.996 668.077 432.82C667.565 432.636 667.137 432.384 666.793 432.064L667.237 431.152C667.997 431.768 668.801 432.076 669.649 432.076C670.217 432.076 670.645 431.956 670.933 431.716C671.229 431.468 671.377 431.104 671.377 430.624C671.377 430.152 671.225 429.8 670.921 429.568C670.625 429.328 670.173 429.208 669.565 429.208H668.521V428.212H669.373C669.957 428.212 670.401 428.092 670.705 427.852C671.017 427.604 671.173 427.244 671.173 426.772C671.173 426.348 671.045 426.024 670.789 425.8C670.533 425.568 670.173 425.452 669.709 425.452C668.901 425.452 668.117 425.76 667.357 426.376L666.925 425.464C667.261 425.144 667.681 424.896 668.185 424.72C668.697 424.536 669.225 424.444 669.769 424.444C670.561 424.444 671.193 424.64 671.665 425.032C672.137 425.424 672.373 425.956 672.373 426.628C672.373 427.1 672.257 427.516 672.025 427.876C671.793 428.236 671.469 428.496 671.053 428.656ZM677.408 427.648C677.936 427.648 678.4 427.76 678.8 427.984C679.2 428.208 679.508 428.524 679.724 428.932C679.948 429.34 680.06 429.808 680.06 430.336C680.06 430.88 679.936 431.36 679.688 431.776C679.448 432.192 679.1 432.516 678.644 432.748C678.196 432.972 677.672 433.084 677.072 433.084C676.552 433.084 676.036 432.992 675.524 432.808C675.02 432.624 674.6 432.376 674.264 432.064L674.696 431.152C675.456 431.768 676.252 432.076 677.084 432.076C677.644 432.076 678.08 431.928 678.392 431.632C678.704 431.328 678.86 430.904 678.86 430.36C678.86 429.84 678.704 429.424 678.392 429.112C678.08 428.8 677.664 428.644 677.144 428.644C676.4 428.644 675.788 428.932 675.308 429.508H674.516V424.54H679.7V425.536H675.74V428.2C676.18 427.832 676.736 427.648 677.408 427.648ZM686.956 433H685.42L682.648 430.24V433H681.436V424.54H682.648V429.784L685.216 427.156H686.716L683.944 429.964L686.956 433Z" fill="#416849" fill-opacity="0.4"/>
<path d="M584.553 428.656C585.049 428.8 585.425 429.048 585.681 429.4C585.945 429.744 586.077 430.18 586.077 430.708C586.077 431.444 585.817 432.024 585.297 432.448C584.777 432.872 584.073 433.084 583.185 433.084C582.625 433.084 582.089 432.996 581.577 432.82C581.065 432.636 580.637 432.384 580.293 432.064L580.737 431.152C581.497 431.768 582.301 432.076 583.149 432.076C583.717 432.076 584.145 431.956 584.433 431.716C584.729 431.468 584.877 431.104 584.877 430.624C584.877 430.152 584.725 429.8 584.421 429.568C584.125 429.328 583.673 429.208 583.065 429.208H582.021V428.212H582.873C583.457 428.212 583.901 428.092 584.205 427.852C584.517 427.604 584.673 427.244 584.673 426.772C584.673 426.348 584.545 426.024 584.289 425.8C584.033 425.568 583.673 425.452 583.209 425.452C582.401 425.452 581.617 425.76 580.857 426.376L580.425 425.464C580.761 425.144 581.181 424.896 581.685 424.72C582.197 424.536 582.725 424.444 583.269 424.444C584.061 424.444 584.693 424.64 585.165 425.032C585.637 425.424 585.873 425.956 585.873 426.628C585.873 427.1 585.757 427.516 585.525 427.876C585.293 428.236 584.969 428.496 584.553 428.656ZM590.5 433.096C589.516 433.096 588.764 432.728 588.244 431.992C587.732 431.256 587.476 430.184 587.476 428.776C587.476 427.368 587.732 426.296 588.244 425.56C588.764 424.816 589.516 424.444 590.5 424.444C591.484 424.444 592.232 424.812 592.744 425.548C593.264 426.284 593.524 427.356 593.524 428.764C593.524 430.18 593.264 431.256 592.744 431.992C592.232 432.728 591.484 433.096 590.5 433.096ZM590.5 432.1C591.116 432.1 591.568 431.832 591.856 431.296C592.144 430.76 592.288 429.916 592.288 428.764C592.288 427.62 592.144 426.784 591.856 426.256C591.568 425.72 591.116 425.452 590.5 425.452C589.884 425.452 589.432 425.72 589.144 426.256C588.856 426.784 588.712 427.62 588.712 428.764C588.712 429.908 588.856 430.752 589.144 431.296C589.432 431.832 589.884 432.1 590.5 432.1ZM600.456 433H598.92L596.148 430.24V433H594.936V424.54H596.148V429.784L598.716 427.156H600.216L597.444 429.964L600.456 433Z" fill="#416849" fill-opacity="0.4"/>
<path d="M86.504 398.98V400H80.96V399.076L83.876 395.884C84.252 395.476 84.524 395.104 84.692 394.768C84.86 394.432 84.944 394.1 84.944 393.772C84.944 393.34 84.82 393.012 84.572 392.788C84.324 392.564 83.968 392.452 83.504 392.452C82.712 392.452 81.928 392.76 81.152 393.376L80.72 392.464C81.056 392.152 81.48 391.904 81.992 391.72C82.504 391.536 83.02 391.444 83.54 391.444C84.348 391.444 84.988 391.648 85.46 392.056C85.932 392.456 86.168 393 86.168 393.688C86.168 394.176 86.06 394.64 85.844 395.08C85.636 395.52 85.284 396.012 84.788 396.556L82.52 398.98H86.504ZM90.7953 400.096C89.8113 400.096 89.0593 399.728 88.5393 398.992C88.0273 398.256 87.7713 397.184 87.7713 395.776C87.7713 394.368 88.0273 393.296 88.5393 392.56C89.0593 391.816 89.8113 391.444 90.7953 391.444C91.7793 391.444 92.5273 391.812 93.0393 392.548C93.5593 393.284 93.8193 394.356 93.8193 395.764C93.8193 397.18 93.5593 398.256 93.0393 398.992C92.5273 399.728 91.7793 400.096 90.7953 400.096ZM90.7953 399.1C91.4113 399.1 91.8633 398.832 92.1513 398.296C92.4393 397.76 92.5833 396.916 92.5833 395.764C92.5833 394.62 92.4393 393.784 92.1513 393.256C91.8633 392.72 91.4113 392.452 90.7953 392.452C90.1793 392.452 89.7273 392.72 89.4393 393.256C89.1513 393.784 89.0073 394.62 89.0073 395.764C89.0073 396.908 89.1513 397.752 89.4393 398.296C89.7273 398.832 90.1793 399.1 90.7953 399.1ZM97.9426 400.312L97.1026 399.832L102.083 391.228L102.923 391.708L97.9426 400.312ZM97.0666 396.604C96.4186 396.604 95.9106 396.384 95.5426 395.944C95.1746 395.504 94.9906 394.86 94.9906 394.012C94.9906 393.164 95.1746 392.524 95.5426 392.092C95.9106 391.652 96.4186 391.432 97.0666 391.432C97.7226 391.432 98.2346 391.652 98.6026 392.092C98.9706 392.524 99.1546 393.164 99.1546 394.012C99.1546 394.868 98.9706 395.516 98.6026 395.956C98.2346 396.388 97.7226 396.604 97.0666 396.604ZM97.0666 395.788C97.4186 395.788 97.6786 395.648 97.8466 395.368C98.0146 395.08 98.0986 394.628 98.0986 394.012C98.0986 393.404 98.0146 392.96 97.8466 392.68C97.6786 392.4 97.4186 392.26 97.0666 392.26C96.7146 392.26 96.4546 392.4 96.2866 392.68C96.1266 392.952 96.0466 393.396 96.0466 394.012C96.0466 394.628 96.1266 395.08 96.2866 395.368C96.4546 395.648 96.7146 395.788 97.0666 395.788ZM102.959 400.084C102.303 400.084 101.791 399.868 101.423 399.436C101.055 398.996 100.871 398.348 100.871 397.492C100.871 396.644 101.055 396.004 101.423 395.572C101.791 395.132 102.303 394.912 102.959 394.912C103.607 394.912 104.115 395.132 104.483 395.572C104.859 396.004 105.047 396.644 105.047 397.492C105.047 398.34 104.863 398.984 104.495 399.424C104.127 399.864 103.615 400.084 102.959 400.084ZM102.959 399.268C103.311 399.268 103.567 399.128 103.727 398.848C103.895 398.56 103.979 398.108 103.979 397.492C103.979 396.884 103.895 396.44 103.727 396.16C103.559 395.872 103.303 395.728 102.959 395.728C102.607 395.728 102.347 395.868 102.179 396.148C102.011 396.428 101.927 396.876 101.927 397.492C101.927 398.108 102.011 398.56 102.179 398.848C102.347 399.128 102.607 399.268 102.959 399.268Z" fill="#416849" fill-opacity="0.4"/>
<g opacity="0.7">
<path fill-rule="evenodd" clip-rule="evenodd" d="M156 396.5H1153.16H156Z" fill="white"/>
<path d="M156 396.5H1153.16" stroke="#EAEAEA" stroke-linecap="square"/>
<path fill-rule="evenodd" clip-rule="evenodd" d="M156 337.5H1153.16H156Z" fill="white"/>
<path d="M156 337.5H1153.16" stroke="#EAEAEA" stroke-linecap="square"/>
<path fill-rule="evenodd" clip-rule="evenodd" d="M156 278.5H1153.16H156Z" fill="white"/>
<path d="M156 278.5H1153.16" stroke="#EAEAEA" stroke-linecap="square"/>
<path fill-rule="evenodd" clip-rule="evenodd" d="M156 219.5H1153.16H156Z" fill="white"/>
<path d="M156 219.5H1153.16" stroke="#EAEAEA" stroke-linecap="square"/>
<path fill-rule="evenodd" clip-rule="evenodd" d="M156 160.5H1153.16H156Z" fill="white"/>
<path d="M156 160.5H1153.16" stroke="#EAEAEA" stroke-linecap="square"/>
</g>
<path d="M86.816 338.264V339.248H85.58V341H84.368V339.248H80.564V338.324L84.572 332.54H85.58V338.264H86.816ZM81.776 338.264H84.368V334.52L81.776 338.264ZM90.7953 341.096C89.8113 341.096 89.0593 340.728 88.5393 339.992C88.0273 339.256 87.7713 338.184 87.7713 336.776C87.7713 335.368 88.0273 334.296 88.5393 333.56C89.0593 332.816 89.8113 332.444 90.7953 332.444C91.7793 332.444 92.5273 332.812 93.0393 333.548C93.5593 334.284 93.8193 335.356 93.8193 336.764C93.8193 338.18 93.5593 339.256 93.0393 339.992C92.5273 340.728 91.7793 341.096 90.7953 341.096ZM90.7953 340.1C91.4113 340.1 91.8633 339.832 92.1513 339.296C92.4393 338.76 92.5833 337.916 92.5833 336.764C92.5833 335.62 92.4393 334.784 92.1513 334.256C91.8633 333.72 91.4113 333.452 90.7953 333.452C90.1793 333.452 89.7273 333.72 89.4393 334.256C89.1513 334.784 89.0073 335.62 89.0073 336.764C89.0073 337.908 89.1513 338.752 89.4393 339.296C89.7273 339.832 90.1793 340.1 90.7953 340.1ZM97.9426 341.312L97.1026 340.832L102.083 332.228L102.923 332.708L97.9426 341.312ZM97.0666 337.604C96.4186 337.604 95.9106 337.384 95.5426 336.944C95.1746 336.504 94.9906 335.86 94.9906 335.012C94.9906 334.164 95.1746 333.524 95.5426 333.092C95.9106 332.652 96.4186 332.432 97.0666 332.432C97.7226 332.432 98.2346 332.652 98.6026 333.092C98.9706 333.524 99.1546 334.164 99.1546 335.012C99.1546 335.868 98.9706 336.516 98.6026 336.956C98.2346 337.388 97.7226 337.604 97.0666 337.604ZM97.0666 336.788C97.4186 336.788 97.6786 336.648 97.8466 336.368C98.0146 336.08 98.0986 335.628 98.0986 335.012C98.0986 334.404 98.0146 333.96 97.8466 333.68C97.6786 333.4 97.4186 333.26 97.0666 333.26C96.7146 333.26 96.4546 333.4 96.2866 333.68C96.1266 333.952 96.0466 334.396 96.0466 335.012C96.0466 335.628 96.1266 336.08 96.2866 336.368C96.4546 336.648 96.7146 336.788 97.0666 336.788ZM102.959 341.084C102.303 341.084 101.791 340.868 101.423 340.436C101.055 339.996 100.871 339.348 100.871 338.492C100.871 337.644 101.055 337.004 101.423 336.572C101.791 336.132 102.303 335.912 102.959 335.912C103.607 335.912 104.115 336.132 104.483 336.572C104.859 337.004 105.047 337.644 105.047 338.492C105.047 339.34 104.863 339.984 104.495 340.424C104.127 340.864 103.615 341.084 102.959 341.084ZM102.959 340.268C103.311 340.268 103.567 340.128 103.727 339.848C103.895 339.56 103.979 339.108 103.979 338.492C103.979 337.884 103.895 337.44 103.727 337.16C103.559 336.872 103.303 336.728 102.959 336.728C102.607 336.728 102.347 336.868 102.179 337.148C102.011 337.428 101.927 337.876 101.927 338.492C101.927 339.108 102.011 339.56 102.179 339.848C102.347 340.128 102.607 340.268 102.959 340.268Z" fill="#416849" fill-opacity="0.4"/>
<path d="M84.032 276.636C84.544 276.636 84.996 276.752 85.388 276.984C85.788 277.208 86.096 277.524 86.312 277.932C86.536 278.34 86.648 278.808 86.648 279.336C86.648 279.864 86.528 280.34 86.288 280.764C86.056 281.18 85.728 281.508 85.304 281.748C84.88 281.98 84.404 282.096 83.876 282.096C82.828 282.096 82.02 281.74 81.452 281.028C80.892 280.308 80.612 279.284 80.612 277.956C80.612 277.012 80.744 276.204 81.008 275.532C81.272 274.852 81.656 274.336 82.16 273.984C82.664 273.624 83.264 273.444 83.96 273.444C84.456 273.444 84.94 273.532 85.412 273.708C85.884 273.884 86.296 274.136 86.648 274.464L86.204 275.376C85.452 274.76 84.716 274.452 83.996 274.452C83.308 274.452 82.776 274.756 82.4 275.364C82.024 275.964 81.836 276.82 81.836 277.932V277.968C82.012 277.552 82.296 277.228 82.688 276.996C83.088 276.756 83.536 276.636 84.032 276.636ZM83.816 281.088C84.312 281.088 84.708 280.932 85.004 280.62C85.3 280.3 85.448 279.88 85.448 279.36C85.448 278.84 85.296 278.424 84.992 278.112C84.696 277.8 84.3 277.644 83.804 277.644C83.308 277.644 82.9 277.804 82.58 278.124C82.26 278.436 82.1 278.848 82.1 279.36C82.1 279.872 82.256 280.288 82.568 280.608C82.888 280.928 83.304 281.088 83.816 281.088ZM90.7836 282.096C89.7996 282.096 89.0476 281.728 88.5276 280.992C88.0156 280.256 87.7596 279.184 87.7596 277.776C87.7596 276.368 88.0156 275.296 88.5276 274.56C89.0476 273.816 89.7996 273.444 90.7836 273.444C91.7676 273.444 92.5156 273.812 93.0276 274.548C93.5476 275.284 93.8076 276.356 93.8076 277.764C93.8076 279.18 93.5476 280.256 93.0276 280.992C92.5156 281.728 91.7676 282.096 90.7836 282.096ZM90.7836 281.1C91.3996 281.1 91.8516 280.832 92.1396 280.296C92.4276 279.76 92.5716 278.916 92.5716 277.764C92.5716 276.62 92.4276 275.784 92.1396 275.256C91.8516 274.72 91.3996 274.452 90.7836 274.452C90.1676 274.452 89.7156 274.72 89.4276 275.256C89.1396 275.784 88.9956 276.62 88.9956 277.764C88.9956 278.908 89.1396 279.752 89.4276 280.296C89.7156 280.832 90.1676 281.1 90.7836 281.1ZM97.9309 282.312L97.0909 281.832L102.071 273.228L102.911 273.708L97.9309 282.312ZM97.0549 278.604C96.4069 278.604 95.8989 278.384 95.5309 277.944C95.1629 277.504 94.9789 276.86 94.9789 276.012C94.9789 275.164 95.1629 274.524 95.5309 274.092C95.8989 273.652 96.4069 273.432 97.0549 273.432C97.7109 273.432 98.2229 273.652 98.5909 274.092C98.9589 274.524 99.1429 275.164 99.1429 276.012C99.1429 276.868 98.9589 277.516 98.5909 277.956C98.2229 278.388 97.7109 278.604 97.0549 278.604ZM97.0549 277.788C97.4069 277.788 97.6669 277.648 97.8349 277.368C98.0029 277.08 98.0869 276.628 98.0869 276.012C98.0869 275.404 98.0029 274.96 97.8349 274.68C97.6669 274.4 97.4069 274.26 97.0549 274.26C96.7029 274.26 96.4429 274.4 96.2749 274.68C96.1149 274.952 96.0349 275.396 96.0349 276.012C96.0349 276.628 96.1149 277.08 96.2749 277.368C96.4429 277.648 96.7029 277.788 97.0549 277.788ZM102.947 282.084C102.291 282.084 101.779 281.868 101.411 281.436C101.043 280.996 100.859 280.348 100.859 279.492C100.859 278.644 101.043 278.004 101.411 277.572C101.779 277.132 102.291 276.912 102.947 276.912C103.595 276.912 104.103 277.132 104.471 277.572C104.847 278.004 105.035 278.644 105.035 279.492C105.035 280.34 104.851 280.984 104.483 281.424C104.115 281.864 103.603 282.084 102.947 282.084ZM102.947 281.268C103.299 281.268 103.555 281.128 103.715 280.848C103.883 280.56 103.967 280.108 103.967 279.492C103.967 278.884 103.883 278.44 103.715 278.16C103.547 277.872 103.291 277.728 102.947 277.728C102.595 277.728 102.335 277.868 102.167 278.148C101.999 278.428 101.915 278.876 101.915 279.492C101.915 280.108 101.999 280.56 102.167 280.848C102.335 281.128 102.595 281.268 102.947 281.268Z" fill="#416849" fill-opacity="0.4"/>
<path d="M85.136 218.656C85.632 218.8 86.016 219.056 86.288 219.424C86.56 219.792 86.696 220.232 86.696 220.744C86.696 221.48 86.424 222.056 85.88 222.472C85.344 222.88 84.584 223.084 83.6 223.084C82.616 223.084 81.852 222.88 81.308 222.472C80.772 222.056 80.504 221.48 80.504 220.744C80.504 220.224 80.64 219.78 80.912 219.412C81.192 219.044 81.58 218.792 82.076 218.656C81.652 218.496 81.316 218.244 81.068 217.9C80.828 217.556 80.708 217.156 80.708 216.7C80.708 216.004 80.964 215.456 81.476 215.056C81.988 214.648 82.696 214.444 83.6 214.444C84.504 214.444 85.212 214.648 85.724 215.056C86.236 215.456 86.492 216.004 86.492 216.7C86.492 217.156 86.368 217.56 86.12 217.912C85.88 218.256 85.552 218.504 85.136 218.656ZM83.6 215.44C83.04 215.44 82.616 215.56 82.328 215.8C82.04 216.032 81.896 216.368 81.896 216.808C81.896 217.264 82.04 217.612 82.328 217.852C82.616 218.092 83.04 218.212 83.6 218.212C84.16 218.212 84.584 218.092 84.872 217.852C85.16 217.612 85.304 217.264 85.304 216.808C85.304 216.368 85.16 216.032 84.872 215.8C84.584 215.56 84.16 215.44 83.6 215.44ZM83.6 222.088C84.872 222.088 85.508 221.612 85.508 220.66C85.508 219.7 84.872 219.22 83.6 219.22C82.328 219.22 81.692 219.7 81.692 220.66C81.692 221.612 82.328 222.088 83.6 222.088ZM90.7953 223.096C89.8113 223.096 89.0593 222.728 88.5393 221.992C88.0273 221.256 87.7713 220.184 87.7713 218.776C87.7713 217.368 88.0273 216.296 88.5393 215.56C89.0593 214.816 89.8113 214.444 90.7953 214.444C91.7793 214.444 92.5273 214.812 93.0393 215.548C93.5593 216.284 93.8193 217.356 93.8193 218.764C93.8193 220.18 93.5593 221.256 93.0393 221.992C92.5273 222.728 91.7793 223.096 90.7953 223.096ZM90.7953 222.1C91.4113 222.1 91.8633 221.832 92.1513 221.296C92.4393 220.76 92.5833 219.916 92.5833 218.764C92.5833 217.62 92.4393 216.784 92.1513 216.256C91.8633 215.72 91.4113 215.452 90.7953 215.452C90.1793 215.452 89.7273 215.72 89.4393 216.256C89.1513 216.784 89.0073 217.62 89.0073 218.764C89.0073 219.908 89.1513 220.752 89.4393 221.296C89.7273 221.832 90.1793 222.1 90.7953 222.1ZM97.9426 223.312L97.1026 222.832L102.083 214.228L102.923 214.708L97.9426 223.312ZM97.0666 219.604C96.4186 219.604 95.9106 219.384 95.5426 218.944C95.1746 218.504 94.9906 217.86 94.9906 217.012C94.9906 216.164 95.1746 215.524 95.5426 215.092C95.9106 214.652 96.4186 214.432 97.0666 214.432C97.7226 214.432 98.2346 214.652 98.6026 215.092C98.9706 215.524 99.1546 216.164 99.1546 217.012C99.1546 217.868 98.9706 218.516 98.6026 218.956C98.2346 219.388 97.7226 219.604 97.0666 219.604ZM97.0666 218.788C97.4186 218.788 97.6786 218.648 97.8466 218.368C98.0146 218.08 98.0986 217.628 98.0986 217.012C98.0986 216.404 98.0146 215.96 97.8466 215.68C97.6786 215.4 97.4186 215.26 97.0666 215.26C96.7146 215.26 96.4546 215.4 96.2866 215.68C96.1266 215.952 96.0466 216.396 96.0466 217.012C96.0466 217.628 96.1266 218.08 96.2866 218.368C96.4546 218.648 96.7146 218.788 97.0666 218.788ZM102.959 223.084C102.303 223.084 101.791 222.868 101.423 222.436C101.055 221.996 100.871 221.348 100.871 220.492C100.871 219.644 101.055 219.004 101.423 218.572C101.791 218.132 102.303 217.912 102.959 217.912C103.607 217.912 104.115 218.132 104.483 218.572C104.859 219.004 105.047 219.644 105.047 220.492C105.047 221.34 104.863 221.984 104.495 222.424C104.127 222.864 103.615 223.084 102.959 223.084ZM102.959 222.268C103.311 222.268 103.567 222.128 103.727 221.848C103.895 221.56 103.979 221.108 103.979 220.492C103.979 219.884 103.895 219.44 103.727 219.16C103.559 218.872 103.303 218.728 102.959 218.728C102.607 218.728 102.347 218.868 102.179 219.148C102.011 219.428 101.927 219.876 101.927 220.492C101.927 221.108 102.011 221.56 102.179 221.848C102.347 222.128 102.607 222.268 102.959 222.268Z" fill="#416849" fill-opacity="0.4"/>
<path d="M84.56 162.98H86.42V164H81.476V162.98H83.324V157.016L81.848 157.916L81.32 156.992L83.672 155.54H84.56V162.98ZM90.7953 164.096C89.8113 164.096 89.0593 163.728 88.5393 162.992C88.0273 162.256 87.7713 161.184 87.7713 159.776C87.7713 158.368 88.0273 157.296 88.5393 156.56C89.0593 155.816 89.8113 155.444 90.7953 155.444C91.7793 155.444 92.5273 155.812 93.0393 156.548C93.5593 157.284 93.8193 158.356 93.8193 159.764C93.8193 161.18 93.5593 162.256 93.0393 162.992C92.5273 163.728 91.7793 164.096 90.7953 164.096ZM90.7953 163.1C91.4113 163.1 91.8633 162.832 92.1513 162.296C92.4393 161.76 92.5833 160.916 92.5833 159.764C92.5833 158.62 92.4393 157.784 92.1513 157.256C91.8633 156.72 91.4113 156.452 90.7953 156.452C90.1793 156.452 89.7273 156.72 89.4393 157.256C89.1513 157.784 89.0073 158.62 89.0073 159.764C89.0073 160.908 89.1513 161.752 89.4393 162.296C89.7273 162.832 90.1793 163.1 90.7953 163.1ZM97.9906 164.096C97.0066 164.096 96.2546 163.728 95.7346 162.992C95.2226 162.256 94.9666 161.184 94.9666 159.776C94.9666 158.368 95.2226 157.296 95.7346 156.56C96.2546 155.816 97.0066 155.444 97.9906 155.444C98.9746 155.444 99.7226 155.812 100.235 156.548C100.755 157.284 101.015 158.356 101.015 159.764C101.015 161.18 100.755 162.256 100.235 162.992C99.7226 163.728 98.9746 164.096 97.9906 164.096ZM97.9906 163.1C98.6066 163.1 99.0586 162.832 99.3466 162.296C99.6346 161.76 99.7786 160.916 99.7786 159.764C99.7786 158.62 99.6346 157.784 99.3466 157.256C99.0586 156.72 98.6066 156.452 97.9906 156.452C97.3746 156.452 96.9226 156.72 96.6346 157.256C96.3466 157.784 96.2026 158.62 96.2026 159.764C96.2026 160.908 96.3466 161.752 96.6346 162.296C96.9226 162.832 97.3746 163.1 97.9906 163.1ZM105.138 164.312L104.298 163.832L109.278 155.228L110.118 155.708L105.138 164.312ZM104.262 160.604C103.614 160.604 103.106 160.384 102.738 159.944C102.37 159.504 102.186 158.86 102.186 158.012C102.186 157.164 102.37 156.524 102.738 156.092C103.106 155.652 103.614 155.432 104.262 155.432C104.918 155.432 105.43 155.652 105.798 156.092C106.166 156.524 106.35 157.164 106.35 158.012C106.35 158.868 106.166 159.516 105.798 159.956C105.43 160.388 104.918 160.604 104.262 160.604ZM104.262 159.788C104.614 159.788 104.874 159.648 105.042 159.368C105.21 159.08 105.294 158.628 105.294 158.012C105.294 157.404 105.21 156.96 105.042 156.68C104.874 156.4 104.614 156.26 104.262 156.26C103.91 156.26 103.65 156.4 103.482 156.68C103.322 156.952 103.242 157.396 103.242 158.012C103.242 158.628 103.322 159.08 103.482 159.368C103.65 159.648 103.91 159.788 104.262 159.788ZM110.154 164.084C109.498 164.084 108.986 163.868 108.618 163.436C108.25 162.996 108.066 162.348 108.066 161.492C108.066 160.644 108.25 160.004 108.618 159.572C108.986 159.132 109.498 158.912 110.154 158.912C110.802 158.912 111.31 159.132 111.678 159.572C112.054 160.004 112.242 160.644 112.242 161.492C112.242 162.34 112.058 162.984 111.69 163.424C111.322 163.864 110.81 164.084 110.154 164.084ZM110.154 163.268C110.506 163.268 110.762 163.128 110.922 162.848C111.09 162.56 111.174 162.108 111.174 161.492C111.174 160.884 111.09 160.44 110.922 160.16C110.754 159.872 110.498 159.728 110.154 159.728C109.802 159.728 109.542 159.868 109.374 160.148C109.206 160.428 109.122 160.876 109.122 161.492C109.122 162.108 109.206 162.56 109.374 162.848C109.542 163.128 109.802 163.268 110.154 163.268Z" fill="#416849" fill-opacity="0.4"/>
<path fill-rule="evenodd" clip-rule="evenodd" d="M156 400L162.317 378.386L184.463 377.457L199.943 369.351L216.126 368.905L227.92 356.984L238.293 325.994L244.942 314.906L262.701 338.034L277.144 341.554L287.712 334.839L300.463 305.241L337.024 365.254L352.076 339.406L369.334 352.38L378.636 332.599L380.45 323.109L394.459 313.417L401.694 300.246L409.69 318.644L408.367 330.724L415.743 332.511L421.467 327.133L436.404 205.643L450.309 353.636L462.692 337.723V328.635L473.276 319.244L478.232 312.046L487.352 301.22L509.034 312.508L519.827 318.644L528.54 314.672L543.737 332.524L565.843 297.438L572.31 316.571L586.171 329.807L599.607 325.568L605.883 316.568L615.929 312.503L617.195 304.776L628.658 285.777L645.488 291.173L650.62 274.286L673.698 385.061L690.151 362.909L711.832 361.36L737.813 377.082L747.906 315.754L760.568 319.206L766.527 311.998L769.884 314.3L776.183 313.598L779.782 316.699L789.781 318.722L789.959 325.584L801.911 329.934L816.845 328.971L817.63 317.485L806.376 242.312L832.602 273.132L845.725 283.487L878.56 262.311L897.089 277.368H903.018H909.705L917.84 286.812L927.721 297.438L980.501 301.22L988.984 285.777L1024.56 329.801L1045.03 291.173L1066.07 304.73L1085.93 287.682L1107.9 301.22L1124.5 310.053L1133.83 307.353L1144.12 300.246L1154 291.173V400H238.606H156Z" fill="url(#paint0_linear_0_1324)"/>
<path d="M156 401L162.383 378.573L184.525 377.643L200.003 369.525L216.184 369.079L227.975 357.142L238.346 326.109L245.132 315.006L262.751 338.166L277.191 341.69L287.758 334.967L300.311 304.862L337.061 365.423L352.111 339.539L369.366 352.531L378.666 332.723L380.481 323.22L394.487 313.515L401.721 300.326L409.716 318.749L408.393 330.846L415.768 332.635L421.49 327.25L436.404 205.643L450.328 353.789L462.708 337.854V328.754L473.292 319.35L478.246 312.142L487.365 301.301L509.043 312.605L519.835 318.749L528.546 314.772L543.741 332.648L565.843 297.514L572.309 316.673L586.168 329.928L599.602 325.683L605.876 316.671L615.921 312.6L617.187 304.862L628.648 285.837L645.475 291.24L650.702 276.166L673.68 385.257L690.13 363.075L711.808 361.523L737.785 377.267L747.876 315.855L760.536 319.312L766.494 312.094L769.85 314.4L776.148 313.696L779.747 316.801L789.744 318.827L789.922 325.699L801.872 330.055L816.804 329.091L817.589 317.588L806.376 242.312L832.558 273.174L845.679 283.544L878.509 262.339L896.766 277.417H909.376L927.64 297.514L952.418 301.301H980.141L988.621 285.837L1008.05 310.026L1024.18 330.846L1045.13 291.24C1045.13 291.24 1064.3 305.894 1066.5 304.862C1068.71 303.83 1087.03 287.649 1087.03 287.649L1104.8 300.326L1126.04 312.142L1143.69 301.301L1152 291.24H1149.61H1150.89" stroke="#285A48" stroke-width="1.5"/>
<path fill-rule="evenodd" clip-rule="evenodd" d="M396 169C396 167.895 396.895 167 398 167H474C475.105 167 476 167.895 476 169V187C476 188.105 475.105 189 474 189H442L436 194.977L430 189H398C396.895 189 396 188.105 396 187V169Z" fill="#285A48"/>
<path d="M410.128 175.576C410.624 175.576 411.068 175.692 411.46 175.924C411.852 176.148 412.156 176.468 412.372 176.884C412.596 177.292 412.708 177.76 412.708 178.288C412.708 178.832 412.588 179.32 412.348 179.752C412.108 180.176 411.772 180.508 411.34 180.748C410.908 180.988 410.42 181.108 409.876 181.108C408.804 181.108 407.976 180.748 407.392 180.028C406.816 179.3 406.528 178.264 406.528 176.92C406.528 175.992 406.664 175.192 406.936 174.52C407.216 173.84 407.616 173.324 408.136 172.972C408.656 172.612 409.272 172.432 409.984 172.432C410.488 172.432 410.98 172.52 411.46 172.696C411.94 172.864 412.356 173.104 412.708 173.416L412.192 174.544C411.448 173.96 410.732 173.668 410.044 173.668C409.428 173.668 408.948 173.932 408.604 174.46C408.26 174.98 408.08 175.736 408.064 176.728C408.248 176.368 408.524 176.088 408.892 175.888C409.26 175.68 409.672 175.576 410.128 175.576ZM409.804 179.884C410.244 179.884 410.592 179.744 410.848 179.464C411.112 179.184 411.244 178.808 411.244 178.336C411.244 177.872 411.112 177.5 410.848 177.22C410.584 176.94 410.232 176.8 409.792 176.8C409.352 176.8 408.992 176.944 408.712 177.232C408.44 177.512 408.304 177.88 408.304 178.336C408.304 178.8 408.44 179.176 408.712 179.464C408.992 179.744 409.356 179.884 409.804 179.884ZM420.071 178.144V179.344H418.883V181H417.371V179.344H413.699V178.204L417.635 172.54H418.883V178.144H420.071ZM415.139 178.144H417.371V174.916L415.139 178.144ZM422.719 179.344V180.436C422.719 180.852 422.647 181.228 422.503 181.564C422.359 181.908 422.115 182.252 421.771 182.596L421.159 182.116C421.535 181.716 421.751 181.344 421.807 181H421.039V179.344H422.719ZM428.275 176.656C428.771 176.784 429.151 177.028 429.415 177.388C429.687 177.74 429.823 178.18 429.823 178.708C429.823 179.444 429.551 180.028 429.007 180.46C428.471 180.884 427.739 181.096 426.811 181.096C426.243 181.096 425.695 181.008 425.167 180.832C424.647 180.656 424.215 180.416 423.871 180.112L424.387 178.984C425.123 179.568 425.911 179.86 426.751 179.86C427.287 179.86 427.687 179.756 427.951 179.548C428.215 179.332 428.347 179.008 428.347 178.576C428.347 178.152 428.211 177.84 427.939 177.64C427.675 177.432 427.263 177.328 426.703 177.328H425.587V176.104H426.499C427.595 176.104 428.143 175.692 428.143 174.868C428.143 174.484 428.023 174.188 427.783 173.98C427.551 173.772 427.219 173.668 426.787 173.668C426.411 173.668 426.027 173.744 425.635 173.896C425.251 174.04 424.875 174.256 424.507 174.544L423.991 173.416C424.327 173.112 424.755 172.872 425.275 172.696C425.803 172.52 426.339 172.432 426.883 172.432C427.715 172.432 428.379 172.636 428.875 173.044C429.371 173.444 429.619 173.988 429.619 174.676C429.611 175.148 429.487 175.56 429.247 175.912C429.015 176.256 428.691 176.504 428.275 176.656ZM434.691 175.576C435.187 175.576 435.631 175.692 436.023 175.924C436.415 176.148 436.719 176.468 436.935 176.884C437.159 177.292 437.271 177.76 437.271 178.288C437.271 178.832 437.151 179.32 436.911 179.752C436.671 180.176 436.335 180.508 435.903 180.748C435.471 180.988 434.983 181.108 434.439 181.108C433.367 181.108 432.539 180.748 431.955 180.028C431.379 179.3 431.091 178.264 431.091 176.92C431.091 175.992 431.227 175.192 431.499 174.52C431.779 173.84 432.179 173.324 432.699 172.972C433.219 172.612 433.835 172.432 434.547 172.432C435.051 172.432 435.543 172.52 436.023 172.696C436.503 172.864 436.919 173.104 437.271 173.416L436.755 174.544C436.011 173.96 435.295 173.668 434.607 173.668C433.991 173.668 433.511 173.932 433.167 174.46C432.823 174.98 432.643 175.736 432.627 176.728C432.811 176.368 433.087 176.088 433.455 175.888C433.823 175.68 434.235 175.576 434.691 175.576ZM434.367 179.884C434.807 179.884 435.155 179.744 435.411 179.464C435.675 179.184 435.807 178.808 435.807 178.336C435.807 177.872 435.675 177.5 435.411 177.22C435.147 176.94 434.795 176.8 434.355 176.8C433.915 176.8 433.555 176.944 433.275 177.232C433.003 177.512 432.867 177.88 432.867 178.336C432.867 178.8 433.003 179.176 433.275 179.464C433.555 179.744 433.919 179.884 434.367 179.884ZM441.886 175.576C442.382 175.576 442.826 175.692 443.218 175.924C443.61 176.148 443.914 176.468 444.13 176.884C444.354 177.292 444.466 177.76 444.466 178.288C444.466 178.832 444.346 179.32 444.106 179.752C443.866 180.176 443.53 180.508 443.098 180.748C442.666 180.988 442.178 181.108 441.634 181.108C440.562 181.108 439.734 180.748 439.15 180.028C438.574 179.3 438.286 178.264 438.286 176.92C438.286 175.992 438.422 175.192 438.694 174.52C438.974 173.84 439.374 173.324 439.894 172.972C440.414 172.612 441.03 172.432 441.742 172.432C442.246 172.432 442.738 172.52 443.218 172.696C443.698 172.864 444.114 173.104 444.466 173.416L443.95 174.544C443.206 173.96 442.49 173.668 441.802 173.668C441.186 173.668 440.706 173.932 440.362 174.46C440.018 174.98 439.838 175.736 439.822 176.728C440.006 176.368 440.282 176.088 440.65 175.888C441.018 175.68 441.43 175.576 441.886 175.576ZM441.562 179.884C442.002 179.884 442.35 179.744 442.606 179.464C442.87 179.184 443.002 178.808 443.002 178.336C443.002 177.872 442.87 177.5 442.606 177.22C442.342 176.94 441.99 176.8 441.55 176.8C441.11 176.8 440.75 176.944 440.47 177.232C440.198 177.512 440.062 177.88 440.062 178.336C440.062 178.8 440.198 179.176 440.47 179.464C440.75 179.744 441.114 179.884 441.562 179.884ZM451.829 178.144V179.344H450.641V181H449.129V179.344H445.457V178.204L449.393 172.54H450.641V178.144H451.829ZM446.897 178.144H449.129V174.916L446.897 178.144ZM452.796 179.344H454.476V181H452.796V179.344ZM455.785 172.54H461.677V173.692L457.837 181H456.193L460.021 173.788H455.785V172.54ZM462.98 172.54H468.872V173.692L465.032 181H463.388L467.216 173.788H462.98V172.54Z" fill="white"/>
<path fill-rule="evenodd" clip-rule="evenodd" d="M436 205C438.209 205 440 203.209 440 201C440 198.791 438.209 197 436 197C433.791 197 432 198.791 432 201C432 203.209 433.791 205 436 205Z" fill="#285A48"/>
<path fill-rule="evenodd" clip-rule="evenodd" d="M402 304C404.209 304 406 302.209 406 300C406 297.791 404.209 296 402 296C399.791 296 398 297.791 398 300C398 302.209 399.791 304 402 304Z" fill="#285A48"/>
<path fill-rule="evenodd" clip-rule="evenodd" d="M337 368C339.209 368 341 366.209 341 364C341 361.791 339.209 360 337 360C334.791 360 333 361.791 333 364C333 366.209 334.791 368 337 368Z" fill="#285A48"/>
<path fill-rule="evenodd" clip-rule="evenodd" d="M301 308C303.209 308 305 306.209 305 304C305 301.791 303.209 300 301 300C298.791 300 297 301.791 297 304C297 306.209 298.791 308 301 308Z" fill="#285A48"/>
<path fill-rule="evenodd" clip-rule="evenodd" d="M245 317C247.209 317 249 315.209 249 313C249 310.791 247.209 309 245 309C242.791 309 241 310.791 241 313C241 315.209 242.791 317 245 317Z" fill="#285A48"/>
<path fill-rule="evenodd" clip-rule="evenodd" d="M215 372C217.209 372 219 370.209 219 368C219 365.791 217.209 364 215 364C212.791 364 211 365.791 211 368C211 370.209 212.791 372 215 372Z" fill="#285A48"/>
<path fill-rule="evenodd" clip-rule="evenodd" d="M157 402C159.209 402 161 400.209 161 398C161 395.791 159.209 394 157 394C154.791 394 153 395.791 153 398C153 400.209 154.791 402 157 402Z" fill="#285A48"/>
<path fill-rule="evenodd" clip-rule="evenodd" d="M487 305C489.209 305 491 303.209 491 301C491 298.791 489.209 297 487 297C484.791 297 483 298.791 483 301C483 303.209 484.791 305 487 305Z" fill="#285A48"/>
<path fill-rule="evenodd" clip-rule="evenodd" d="M566 299C568.209 299 570 297.209 570 295C570 292.791 568.209 291 566 291C563.791 291 562 292.791 562 295C562 297.209 563.791 299 566 299Z" fill="#285A48"/>
<path fill-rule="evenodd" clip-rule="evenodd" d="M651 278C653.209 278 655 276.209 655 274C655 271.791 653.209 270 651 270C648.791 270 647 271.791 647 274C647 276.209 648.791 278 651 278Z" fill="#285A48"/>
<path fill-rule="evenodd" clip-rule="evenodd" d="M673 388C675.209 388 677 386.209 677 384C677 381.791 675.209 380 673 380C670.791 380 669 381.791 669 384C669 386.209 670.791 388 673 388Z" fill="#285A48"/>
<path fill-rule="evenodd" clip-rule="evenodd" d="M738 380C740.209 380 742 378.209 742 376C742 373.791 740.209 372 738 372C735.791 372 734 373.791 734 376C734 378.209 735.791 380 738 380Z" fill="#285A48"/>
<path fill-rule="evenodd" clip-rule="evenodd" d="M807 246C809.209 246 811 244.209 811 242C811 239.791 809.209 238 807 238C804.791 238 803 239.791 803 242C803 244.209 804.791 246 807 246Z" fill="#285A48"/>
<path fill-rule="evenodd" clip-rule="evenodd" d="M816 331C818.209 331 820 329.209 820 327C820 324.791 818.209 323 816 323C813.791 323 812 324.791 812 327C812 329.209 813.791 331 816 331Z" fill="#285A48"/>
<path fill-rule="evenodd" clip-rule="evenodd" d="M845 286C847.209 286 849 284.209 849 282C849 279.791 847.209 278 845 278C842.791 278 841 279.791 841 282C841 284.209 842.791 286 845 286Z" fill="#285A48"/>
<path fill-rule="evenodd" clip-rule="evenodd" d="M877 266C879.209 266 881 264.209 881 262C881 259.791 879.209 258 877 258C874.791 258 873 259.791 873 262C873 264.209 874.791 266 877 266Z" fill="#285A48"/>
<path fill-rule="evenodd" clip-rule="evenodd" d="M989 289C991.209 289 993 287.209 993 285C993 282.791 991.209 281 989 281C986.791 281 985 282.791 985 285C985 287.209 986.791 289 989 289Z" fill="#285A48"/>
<path fill-rule="evenodd" clip-rule="evenodd" d="M1024 335C1026.21 335 1028 333.209 1028 331C1028 328.791 1026.21 327 1024 327C1021.79 327 1020 328.791 1020 331C1020 333.209 1021.79 335 1024 335Z" fill="#285A48"/>
<path fill-rule="evenodd" clip-rule="evenodd" d="M1045 294C1047.21 294 1049 292.209 1049 290C1049 287.791 1047.21 286 1045 286C1042.79 286 1041 287.791 1041 290C1041 292.209 1042.79 294 1045 294Z" fill="#285A48"/>
<path fill-rule="evenodd" clip-rule="evenodd" d="M1087 292C1089.21 292 1091 290.209 1091 288C1091 285.791 1089.21 284 1087 284C1084.79 284 1083 285.791 1083 288C1083 290.209 1084.79 292 1087 292Z" fill="#285A48"/>
<rect x="1050.3" y="80.3" width="103.4" height="27.4" rx="3.7" fill="#FCFDFD" stroke="#D5D5D5" stroke-width="0.6"/>
<path d="M1136.86 91.2681L1133 95.2936L1129.14 91.2681C1128.84 90.9181 1128.53 90.9108 1128.23 91.2462C1127.92 91.5817 1127.92 91.9099 1128.23 92.2307L1132.54 96.7812C1132.65 96.9271 1132.81 97 1133 97C1133.19 97 1133.35 96.9271 1133.46 96.7812L1137.77 92.2307C1138.08 91.9099 1138.08 91.5817 1137.77 91.2462C1137.47 90.9108 1137.16 90.9181 1136.86 91.2681Z" fill="#416849" fill-opacity="0.4"/>
<path d="M1073.7 98.096C1072.9 98.096 1072.2 97.92 1071.61 97.568C1071.03 97.216 1070.57 96.716 1070.25 96.068C1069.93 95.42 1069.77 94.656 1069.77 93.776C1069.77 92.888 1069.93 92.12 1070.24 91.472C1070.56 90.816 1071.02 90.316 1071.61 89.972C1072.2 89.62 1072.9 89.444 1073.7 89.444C1074.51 89.444 1075.21 89.62 1075.8 89.972C1076.39 90.316 1076.84 90.816 1077.15 91.472C1077.47 92.12 1077.63 92.884 1077.63 93.764C1077.63 94.644 1077.47 95.412 1077.15 96.068C1076.84 96.716 1076.39 97.216 1075.8 97.568C1075.21 97.92 1074.51 98.096 1073.7 98.096ZM1073.7 97.088C1074.55 97.088 1075.21 96.8 1075.68 96.224C1076.15 95.648 1076.39 94.828 1076.39 93.764C1076.39 92.7 1076.15 91.884 1075.68 91.316C1075.21 90.74 1074.55 90.452 1073.7 90.452C1072.86 90.452 1072.2 90.74 1071.73 91.316C1071.27 91.884 1071.03 92.7 1071.03 93.764C1071.03 94.828 1071.27 95.648 1071.73 96.224C1072.2 96.8 1072.86 97.088 1073.7 97.088ZM1081.74 98.084C1081.15 98.084 1080.64 97.96 1080.2 97.712C1079.76 97.464 1079.43 97.116 1079.19 96.668C1078.96 96.212 1078.84 95.68 1078.84 95.072C1078.84 94.464 1078.96 93.928 1079.2 93.464C1079.45 93 1079.79 92.64 1080.23 92.384C1080.68 92.128 1081.2 92 1081.79 92C1082.2 92 1082.59 92.068 1082.97 92.204C1083.35 92.34 1083.66 92.524 1083.9 92.756L1083.53 93.62C1083 93.188 1082.46 92.972 1081.89 92.972C1081.33 92.972 1080.89 93.156 1080.57 93.524C1080.26 93.884 1080.1 94.396 1080.1 95.06C1080.1 95.716 1080.26 96.224 1080.57 96.584C1080.88 96.936 1081.32 97.112 1081.89 97.112C1082.46 97.112 1083 96.896 1083.53 96.464L1083.9 97.34C1083.65 97.572 1083.33 97.756 1082.94 97.892C1082.56 98.02 1082.16 98.084 1081.74 98.084ZM1087.77 97.148C1087.96 97.148 1088.14 97.136 1088.31 97.112L1088.25 98.036C1088.05 98.068 1087.84 98.084 1087.63 98.084C1086.87 98.084 1086.3 97.9 1085.92 97.532C1085.56 97.156 1085.37 96.616 1085.37 95.912V93.08H1084.23V92.144H1085.37V90.38H1086.58V92.144H1088.19V93.08H1086.58V95.864C1086.58 96.72 1086.98 97.148 1087.77 97.148ZM1091.77 98.084C1091.2 98.084 1090.69 97.96 1090.25 97.712C1089.82 97.464 1089.48 97.112 1089.24 96.656C1089.01 96.192 1088.89 95.656 1088.89 95.048C1088.89 94.432 1089.01 93.896 1089.24 93.44C1089.48 92.976 1089.82 92.62 1090.25 92.372C1090.69 92.124 1091.2 92 1091.77 92C1092.35 92 1092.85 92.124 1093.29 92.372C1093.73 92.62 1094.06 92.976 1094.29 93.44C1094.53 93.896 1094.65 94.432 1094.65 95.048C1094.65 95.656 1094.53 96.192 1094.29 96.656C1094.06 97.112 1093.73 97.464 1093.29 97.712C1092.85 97.96 1092.35 98.084 1091.77 98.084ZM1091.77 97.124C1092.31 97.124 1092.72 96.948 1093 96.596C1093.29 96.244 1093.43 95.728 1093.43 95.048C1093.43 94.376 1093.29 93.864 1093 93.512C1092.71 93.152 1092.3 92.972 1091.77 92.972C1091.25 92.972 1090.84 93.152 1090.55 93.512C1090.26 93.864 1090.12 94.376 1090.12 95.048C1090.12 95.728 1090.26 96.244 1090.54 96.596C1090.83 96.948 1091.24 97.124 1091.77 97.124ZM1099.15 92C1099.66 92 1100.11 92.124 1100.5 92.372C1100.9 92.62 1101.2 92.972 1101.42 93.428C1101.64 93.884 1101.75 94.416 1101.75 95.024C1101.75 95.624 1101.64 96.156 1101.42 96.62C1101.2 97.084 1100.89 97.444 1100.49 97.7C1100.1 97.956 1099.65 98.084 1099.15 98.084C1098.71 98.084 1098.32 97.992 1097.98 97.808C1097.65 97.616 1097.39 97.344 1097.22 96.992V98H1096V89.54H1097.22V93.104C1097.39 92.752 1097.65 92.48 1097.98 92.288C1098.32 92.096 1098.71 92 1099.15 92ZM1098.86 97.124C1099.38 97.124 1099.78 96.94 1100.07 96.572C1100.37 96.204 1100.52 95.688 1100.52 95.024C1100.52 94.368 1100.37 93.864 1100.08 93.512C1099.8 93.152 1099.39 92.972 1098.86 92.972C1098.33 92.972 1097.92 93.152 1097.64 93.512C1097.36 93.872 1097.22 94.384 1097.22 95.048C1097.22 95.712 1097.36 96.224 1097.64 96.584C1097.92 96.944 1098.33 97.124 1098.86 97.124ZM1108.11 95.276H1103.97C1104.06 96.516 1104.67 97.136 1105.82 97.136C1106.49 97.136 1107.1 96.916 1107.64 96.476L1108.01 97.328C1107.74 97.56 1107.41 97.744 1107.01 97.88C1106.61 98.016 1106.2 98.084 1105.78 98.084C1104.85 98.084 1104.11 97.816 1103.56 97.28C1103.03 96.744 1102.76 96.004 1102.76 95.06C1102.76 94.46 1102.87 93.928 1103.11 93.464C1103.35 93 1103.68 92.64 1104.1 92.384C1104.53 92.128 1105.02 92 1105.57 92C1106.36 92 1106.98 92.256 1107.43 92.768C1107.88 93.28 1108.11 93.988 1108.11 94.892V95.276ZM1105.59 92.888C1105.13 92.888 1104.75 93.036 1104.47 93.332C1104.2 93.62 1104.04 94.036 1103.98 94.58H1107.07C1107.04 94.036 1106.9 93.62 1106.65 93.332C1106.4 93.036 1106.05 92.888 1105.59 92.888ZM1113.01 93.02L1112.28 93.092C1111.7 93.148 1111.29 93.324 1111.03 93.62C1110.78 93.916 1110.66 94.292 1110.66 94.748V98H1109.45V92.144H1110.62V93.164C1110.93 92.476 1111.57 92.096 1112.53 92.024L1112.93 92L1113.01 93.02Z" fill="#416849" fill-opacity="0.4"/>
<path d="M87.56 103.216C86.264 103.216 85.048 103.04 83.912 102.688C82.776 102.336 81.816 101.84 81.032 101.2L82.064 98.944C82.88 99.568 83.736 100.024 84.632 100.312C85.544 100.6 86.528 100.744 87.584 100.744C88.752 100.744 89.648 100.544 90.272 100.144C90.912 99.728 91.232 99.152 91.232 98.416C91.232 97.776 90.936 97.288 90.344 96.952C89.768 96.616 88.8 96.296 87.44 95.992C86.032 95.688 84.888 95.336 84.008 94.936C83.128 94.536 82.464 94.024 82.016 93.4C81.568 92.776 81.344 91.984 81.344 91.024C81.344 90.032 81.616 89.144 82.16 88.36C82.704 87.576 83.472 86.968 84.464 86.536C85.456 86.088 86.6 85.864 87.896 85.864C89.08 85.864 90.208 86.048 91.28 86.416C92.352 86.768 93.232 87.256 93.92 87.88L92.888 90.136C91.384 88.936 89.72 88.336 87.896 88.336C86.808 88.336 85.944 88.56 85.304 89.008C84.68 89.44 84.368 90.048 84.368 90.832C84.368 91.488 84.648 91.992 85.208 92.344C85.768 92.696 86.72 93.024 88.064 93.328C89.488 93.648 90.64 94.008 91.52 94.408C92.416 94.792 93.096 95.288 93.56 95.896C94.04 96.504 94.28 97.272 94.28 98.2C94.28 99.208 94.008 100.096 93.464 100.864C92.936 101.616 92.16 102.2 91.136 102.616C90.128 103.016 88.936 103.216 87.56 103.216ZM101.905 90.976C103.553 90.976 104.777 91.376 105.577 92.176C106.377 92.976 106.777 94.208 106.777 95.872V103H103.921V101.2C103.649 101.824 103.217 102.312 102.625 102.664C102.049 103.016 101.377 103.192 100.609 103.192C99.8247 103.192 99.1127 103.032 98.4727 102.712C97.8327 102.392 97.3287 101.952 96.9607 101.392C96.5927 100.832 96.4087 100.208 96.4087 99.52C96.4087 98.656 96.6247 97.976 97.0567 97.48C97.5047 96.984 98.2247 96.624 99.2167 96.4C100.209 96.176 101.577 96.064 103.321 96.064H103.921V95.512C103.921 94.712 103.745 94.136 103.393 93.784C103.057 93.432 102.489 93.256 101.689 93.256C101.065 93.256 100.409 93.368 99.7207 93.592C99.0487 93.8 98.3847 94.096 97.7287 94.48L96.8887 92.416C97.5447 92 98.3367 91.656 99.2647 91.384C100.193 91.112 101.073 90.976 101.905 90.976ZM101.209 101.032C102.009 101.032 102.657 100.768 103.153 100.24C103.665 99.696 103.921 99 103.921 98.152V97.648H103.489C102.417 97.648 101.585 97.696 100.993 97.792C100.401 97.888 99.9767 98.056 99.7207 98.296C99.4647 98.536 99.3367 98.864 99.3367 99.28C99.3367 99.792 99.5127 100.216 99.8647 100.552C100.217 100.872 100.665 101.032 101.209 101.032ZM109.826 103V86.08H112.826V103H109.826ZM126.215 97.672H118.223C118.319 98.76 118.647 99.568 119.207 100.096C119.767 100.624 120.567 100.888 121.607 100.888C122.903 100.888 124.087 100.472 125.159 99.64L126.023 101.704C125.479 102.152 124.791 102.512 123.959 102.784C123.143 103.056 122.319 103.192 121.487 103.192C119.567 103.192 118.047 102.648 116.927 101.56C115.823 100.472 115.271 98.984 115.271 97.096C115.271 95.896 115.511 94.832 115.991 93.904C116.471 92.976 117.143 92.256 118.007 91.744C118.887 91.232 119.879 90.976 120.983 90.976C122.599 90.976 123.871 91.496 124.799 92.536C125.743 93.576 126.215 95.008 126.215 96.832V97.672ZM121.055 93.088C120.255 93.088 119.607 93.344 119.111 93.856C118.631 94.368 118.335 95.104 118.223 96.064H123.647C123.615 95.088 123.375 94.352 122.927 93.856C122.479 93.344 121.855 93.088 121.055 93.088ZM132.989 103.192C131.949 103.192 130.989 103.064 130.109 102.808C129.245 102.552 128.509 102.184 127.901 101.704L128.741 99.616C129.989 100.528 131.421 100.984 133.037 100.984C133.725 100.984 134.245 100.872 134.597 100.648C134.965 100.424 135.149 100.104 135.149 99.688C135.149 99.336 135.021 99.064 134.765 98.872C134.525 98.68 134.085 98.504 133.445 98.344L131.525 97.912C130.437 97.672 129.629 97.28 129.101 96.736C128.573 96.192 128.309 95.488 128.309 94.624C128.309 93.904 128.509 93.272 128.909 92.728C129.325 92.168 129.893 91.736 130.613 91.432C131.349 91.128 132.197 90.976 133.157 90.976C133.989 90.976 134.789 91.104 135.557 91.36C136.341 91.616 137.029 91.976 137.621 92.44L136.781 94.48C135.565 93.6 134.349 93.16 133.133 93.16C132.477 93.16 131.965 93.28 131.597 93.52C131.229 93.76 131.045 94.096 131.045 94.528C131.045 94.848 131.157 95.112 131.381 95.32C131.621 95.528 131.997 95.688 132.509 95.8L134.501 96.256C135.669 96.512 136.525 96.92 137.069 97.48C137.613 98.024 137.885 98.744 137.885 99.64C137.885 100.728 137.445 101.592 136.565 102.232C135.685 102.872 134.493 103.192 132.989 103.192ZM147.097 86.08H153.337C156.105 86.08 158.249 86.824 159.769 88.312C161.305 89.784 162.073 91.856 162.073 94.528C162.073 97.2 161.305 99.28 159.769 100.768C158.249 102.256 156.105 103 153.337 103H147.097V86.08ZM153.145 100.48C157.033 100.48 158.977 98.496 158.977 94.528C158.977 90.576 157.033 88.6 153.145 88.6H150.193V100.48H153.145ZM175.223 97.672H167.231C167.327 98.76 167.655 99.568 168.215 100.096C168.775 100.624 169.575 100.888 170.615 100.888C171.911 100.888 173.095 100.472 174.167 99.64L175.031 101.704C174.487 102.152 173.799 102.512 172.967 102.784C172.151 103.056 171.327 103.192 170.495 103.192C168.575 103.192 167.055 102.648 165.935 101.56C164.831 100.472 164.279 98.984 164.279 97.096C164.279 95.896 164.519 94.832 164.999 93.904C165.479 92.976 166.151 92.256 167.015 91.744C167.895 91.232 168.887 90.976 169.991 90.976C171.607 90.976 172.879 91.496 173.807 92.536C174.751 93.576 175.223 95.008 175.223 96.832V97.672ZM170.063 93.088C169.263 93.088 168.615 93.344 168.119 93.856C167.639 94.368 167.343 95.104 167.231 96.064H172.655C172.623 95.088 172.383 94.352 171.935 93.856C171.487 93.344 170.863 93.088 170.063 93.088ZM183.513 100.936C183.865 100.936 184.233 100.912 184.617 100.864L184.473 103.096C183.993 103.144 183.553 103.168 183.153 103.168C181.505 103.168 180.289 102.792 179.505 102.04C178.721 101.272 178.329 100.136 178.329 98.632V93.52H176.073V91.264H178.329V87.76H181.329V91.264H184.425V93.52H181.329V98.584C181.329 100.152 182.057 100.936 183.513 100.936ZM191.413 90.976C193.061 90.976 194.285 91.376 195.085 92.176C195.885 92.976 196.285 94.208 196.285 95.872V103H193.429V101.2C193.157 101.824 192.725 102.312 192.133 102.664C191.557 103.016 190.885 103.192 190.117 103.192C189.333 103.192 188.621 103.032 187.98 102.712C187.341 102.392 186.837 101.952 186.469 101.392C186.101 100.832 185.917 100.208 185.917 99.52C185.917 98.656 186.133 97.976 186.565 97.48C187.013 96.984 187.733 96.624 188.725 96.4C189.717 96.176 191.085 96.064 192.829 96.064H193.429V95.512C193.429 94.712 193.253 94.136 192.901 93.784C192.565 93.432 191.997 93.256 191.197 93.256C190.573 93.256 189.917 93.368 189.229 93.592C188.557 93.8 187.893 94.096 187.237 94.48L186.396 92.416C187.053 92 187.845 91.656 188.773 91.384C189.701 91.112 190.581 90.976 191.413 90.976ZM190.717 101.032C191.517 101.032 192.165 100.768 192.661 100.24C193.173 99.696 193.429 99 193.429 98.152V97.648H192.997C191.925 97.648 191.093 97.696 190.501 97.792C189.909 97.888 189.485 98.056 189.229 98.296C188.973 98.536 188.845 98.864 188.845 99.28C188.845 99.792 189.021 100.216 189.373 100.552C189.725 100.872 190.173 101.032 190.717 101.032ZM199.333 103V91.264H202.333V103H199.333ZM199.165 85.816H202.477V88.768H199.165V85.816ZM205.427 103V86.08H208.427V103H205.427ZM215.841 103.192C214.801 103.192 213.841 103.064 212.961 102.808C212.097 102.552 211.361 102.184 210.753 101.704L211.593 99.616C212.841 100.528 214.273 100.984 215.889 100.984C216.577 100.984 217.097 100.872 217.449 100.648C217.817 100.424 218.001 100.104 218.001 99.688C218.001 99.336 217.873 99.064 217.617 98.872C217.377 98.68 216.937 98.504 216.297 98.344L214.377 97.912C213.289 97.672 212.481 97.28 211.953 96.736C211.425 96.192 211.161 95.488 211.161 94.624C211.161 93.904 211.361 93.272 211.761 92.728C212.177 92.168 212.745 91.736 213.465 91.432C214.201 91.128 215.049 90.976 216.009 90.976C216.841 90.976 217.641 91.104 218.409 91.36C219.193 91.616 219.881 91.976 220.473 92.44L219.633 94.48C218.417 93.6 217.201 93.16 215.985 93.16C215.329 93.16 214.817 93.28 214.449 93.52C214.081 93.76 213.897 94.096 213.897 94.528C213.897 94.848 214.009 95.112 214.233 95.32C214.473 95.528 214.849 95.688 215.361 95.8L217.353 96.256C218.521 96.512 219.377 96.92 219.921 97.48C220.465 98.024 220.737 98.744 220.737 99.64C220.737 100.728 220.297 101.592 219.417 102.232C218.537 102.872 217.345 103.192 215.841 103.192Z" fill="#202224"/>
<defs>
<filter id="filter0_d_0_1324" x="0" y="0" width="1246" height="552" filterUnits="userSpaceOnUse" color-interpolation-filters="sRGB">
<feFlood flood-opacity="0" result="BackgroundImageFix"/>
<feColorMatrix in="SourceAlpha" type="matrix" values="0 0 0 0 0 0 0 0 0 0 0 0 0 0 0 0 0 0 127 0" result="hardAlpha"/>
<feOffset dx="6" dy="6"/>
<feGaussianBlur stdDeviation="27"/>
<feColorMatrix type="matrix" values="0 0 0 0 0 0 0 0 0 0 0 0 0 0 0 0 0 0 0.05 0"/>
<feBlend mode="normal" in2="BackgroundImageFix" result="effect1_dropShadow_0_1324"/>
<feBlend mode="normal" in="SourceGraphic" in2="effect1_dropShadow_0_1324" result="shape"/>
</filter>
<linearGradient id="paint0_linear_0_1324" x1="405.5" y1="302.822" x2="405.5" y2="400" gradientUnits="userSpaceOnUse">
<stop stop-color="#4379EE" stop-opacity="0.16"/>
<stop offset="1" stop-color="white" stop-opacity="0.176942"/>
</linearGradient>
</defs>
</svg>
